<svg width="17" height="20" viewBox="0 0 17 20" fill="none" xmlns="http://www.w3.org/2000/svg">
<path d="M13.8548 10.6157C13.8618 9.84811 14.0636 9.09485 14.4411 8.42646C14.8186 7.75807 15.3596 7.1964 16.0133 6.79406C15.6007 6.20242 15.0558 5.71522 14.4218 5.37121C13.7879 5.0272 13.0824 4.83588 12.3615 4.81246C10.8187 4.65676 9.33249 5.74664 8.53985 5.74664C7.74721 5.74664 6.53702 4.83369 5.23482 4.89738C4.39261 4.92532 3.57196 5.17072 2.85268 5.60974C2.1334 6.04875 1.53996 6.66642 1.13008 7.40269C-0.639205 10.4671 0.684221 14.9752 2.38273 17.4522C3.23199 18.6695 4.22279 20 5.52498 20C6.8201 20 7.27304 19.2003 8.8017 19.2003C10.3304 19.2003 10.7762 20.0071 12.0996 19.9788C13.4231 19.9575 14.3219 18.7544 15.1428 17.5372C15.7521 16.6703 16.2203 15.7125 16.5299 14.6992C15.7286 14.3596 15.0464 13.7893 14.5701 13.0609C14.0937 12.3325 13.8447 11.4789 13.8548 10.6086V10.6157ZM11.3495 3.19887C12.0964 2.30794 12.4625 1.15878 12.3686 0C11.2241 0.116678 10.1655 0.659891 9.40326 1.52159C8.66201 2.36924 8.28779 3.47661 8.36292 4.60014C8.9346 4.60965 9.5009 4.48833 10.0185 4.24547C10.5361 4.0026 10.9914 3.64462 11.3495 3.19887Z" fill="#171A1C"/>
</svg>
