<svg width="32" height="32" viewBox="0 0 32 32" fill="#0B0C0D" xmlns="http://www.w3.org/2000/svg">
<path d="M3.20117 7.60039C3.20117 7.28213 3.3276 6.97691 3.55264 6.75186C3.77769 6.52682 4.08291 6.40039 4.40117 6.40039H27.6012C27.9194 6.40039 28.2247 6.52682 28.4497 6.75186C28.6747 6.97691 28.8012 7.28213 28.8012 7.60039C28.8012 7.91865 28.6747 8.22388 28.4497 8.44892C28.2247 8.67396 27.9194 8.80039 27.6012 8.80039H4.40117C4.08291 8.80039 3.77769 8.67396 3.55264 8.44892C3.3276 8.22388 3.20117 7.91865 3.20117 7.60039ZM3.20117 16.0004C3.20117 15.6821 3.3276 15.3769 3.55264 15.1519C3.77769 14.9268 4.08291 14.8004 4.40117 14.8004H27.6012C27.9194 14.8004 28.2247 14.9268 28.4497 15.1519C28.6747 15.3769 28.8012 15.6821 28.8012 16.0004C28.8012 16.3187 28.6747 16.6239 28.4497 16.8489C28.2247 17.074 27.9194 17.2004 27.6012 17.2004H4.40117C4.08291 17.2004 3.77769 17.074 3.55264 16.8489C3.3276 16.6239 3.20117 16.3187 3.20117 16.0004ZM3.20117 24.4004C3.20117 24.0821 3.3276 23.7769 3.55264 23.5519C3.77769 23.3268 4.08291 23.2004 4.40117 23.2004H27.6012C27.9194 23.2004 28.2247 23.3268 28.4497 23.5519C28.6747 23.7769 28.8012 24.0821 28.8012 24.4004C28.8012 24.7187 28.6747 25.0239 28.4497 25.2489C28.2247 25.474 27.9194 25.6004 27.6012 25.6004H4.40117C4.08291 25.6004 3.77769 25.474 3.55264 25.2489C3.3276 25.0239 3.20117 24.7187 3.20117 24.4004Z" />
</svg>
