<svg width="16" height="16" viewBox="0 0 17 16" fill="none" xmlns="http://www.w3.org/2000/svg">
<rect x="0.998698" y="0.166667" width="15.6667" height="15.6667" rx="3.16667" fill="url(#paint0_linear_46743_3185)"/>
<rect x="0.998698" y="0.166667" width="15.6667" height="15.6667" rx="3.16667" stroke="url(#paint1_linear_46743_3185)" stroke-width="0.333333"/>
<g clip-path="url(#clip0_46743_3185)">
<path d="M11.2999 6.61759C11.6277 6.29214 11.6277 5.7645 11.2999 5.43905C10.9722 5.11361 10.4408 5.11361 10.113 5.43905C9.78523 5.7645 9.78523 6.29214 10.113 6.61759C10.4408 6.94303 10.9722 6.94303 11.2999 6.61759Z" fill="url(#paint2_linear_46743_3185)"/>
<path d="M9.86775 7.80743V10.1652C9.86775 10.6254 9.49192 10.9985 9.02846 10.9985C8.565 10.9985 8.18917 10.6254 8.18917 10.1652L8.18878 8.86146L8.18917 8.86107V7.99734C8.18917 7.99479 8.19075 7.90013 8.18838 7.8086V7.80743C8.18779 7.78312 8.18681 7.75921 8.18542 7.73726V7.73452C8.18523 7.73275 8.18503 7.73079 8.18483 7.72883C8.18463 7.7257 8.18424 7.72276 8.18404 7.72021C8.18266 7.70179 8.18148 7.68317 8.1795 7.66494C8.17476 7.62084 8.16845 7.57714 8.16036 7.53422C8.1039 7.23063 7.96435 6.95585 7.76598 6.73399C7.72137 6.68401 7.674 6.63678 7.62366 6.59268C7.61241 6.58288 7.60096 6.57347 7.58952 6.56387L6.86728 5.84674L6.66338 5.64428C6.56706 5.50866 6.5106 5.34324 6.5106 5.16489C6.5106 4.70451 6.88643 4.33154 7.34989 4.33154H11.5463V2.66504H7.34989C6.25361 2.66504 5.32096 3.3608 4.97533 4.33174C4.96546 4.35957 4.95599 4.3876 4.9473 4.41582C4.8723 4.65238 4.83203 4.90403 4.83203 5.16509C4.83203 5.60979 4.94888 6.02725 5.15417 6.38905C5.20608 6.48077 5.26371 6.56896 5.32648 6.65304C5.35056 6.68538 5.37524 6.71694 5.4009 6.7479C5.50709 6.87686 5.62612 6.99505 5.756 7.10049L5.92358 7.26689L6.1411 7.48287C6.1411 7.48287 6.14189 7.48385 6.14228 7.48424C6.32131 7.69846 6.44724 7.95775 6.50014 8.24233C6.50409 8.26291 6.50744 8.28368 6.5106 8.30465V8.79071C6.51041 8.79188 6.51041 8.79286 6.51021 8.79404C6.51021 8.79404 6.51034 8.79391 6.5106 8.79365V10.1652C6.5106 10.4574 6.56113 10.7379 6.65391 10.9985C6.99953 11.9693 7.93218 12.665 9.02846 12.665C10.1247 12.665 11.0574 11.9693 11.403 10.9985C11.4958 10.7379 11.5463 10.4574 11.5463 10.1652V7.66514H9.86775V7.80743Z" fill="url(#paint3_linear_46743_3185)"/>
<path d="M9.86905 10.0228V10.1649C9.86905 10.625 9.49323 10.9982 9.02977 10.9982C8.56631 10.9982 8.19048 10.625 8.19048 10.1649L8.19009 8.86112L8.19048 8.86073V7.997C8.19048 7.99446 8.19206 7.89979 8.18969 7.80827V7.80709C8.1891 7.78279 8.18811 7.75888 8.18673 7.73693C8.18673 7.73595 8.18673 7.73516 8.18673 7.73418C8.18673 7.73242 8.18653 7.73046 8.18634 7.7285C8.18614 7.72536 8.18574 7.72242 8.18555 7.71987C8.18417 7.70145 8.18298 7.68283 8.18101 7.66461C8.17627 7.62051 8.16995 7.5768 8.16186 7.53388C8.10541 7.23029 7.96586 6.95551 7.76748 6.73365C7.72287 6.68368 7.6755 6.63644 7.62517 6.59234C7.61392 6.58254 7.60247 6.57314 7.59102 6.56353L6.86878 5.84641L6.66488 5.64395C6.56856 5.50832 6.51211 5.34291 6.51211 5.16456C6.51211 4.75376 6.81154 4.41274 7.20533 4.34414V4.34375C6.8074 4.40039 6.15662 4.62774 5.62486 5.46383C5.34694 5.90089 5.26601 6.27837 5.28101 6.58764C5.29641 6.60959 5.312 6.63115 5.32799 6.65271C5.35207 6.68505 5.37674 6.7166 5.4024 6.74757C5.5086 6.87653 5.62762 6.99471 5.7575 7.10015L5.92508 7.26655L6.1426 7.48253C6.1426 7.48253 6.14339 7.48351 6.14379 7.4839C6.32281 7.69812 6.44875 7.95741 6.50165 8.24199C6.50559 8.26257 6.50895 8.28335 6.51211 8.30432V8.79037C6.51191 8.79155 6.51191 8.79253 6.51171 8.7937C6.51171 8.7937 6.51184 8.79357 6.51211 8.79331V10.1649C6.51211 10.4571 6.56264 10.7375 6.65541 10.9982C6.90747 11.7061 7.4718 12.2672 8.18397 12.5197C8.18476 12.5195 8.18535 12.5191 8.18614 12.5189C10.0368 11.7837 9.86925 10.023 9.86925 10.023L9.86905 10.0228Z" fill="url(#paint4_linear_46743_3185)"/>
</g>
<defs>
<linearGradient id="paint0_linear_46743_3185" x1="8.85336" y1="-5.70443" x2="8.95802" y2="19.8636" gradientUnits="userSpaceOnUse">
<stop stop-color="#033A46"/>
<stop offset="0.34375" stop-color="#033A46"/>
<stop offset="0.595" stop-color="#222233"/>
</linearGradient>
<linearGradient id="paint1_linear_46743_3185" x1="0.832031" y1="10.7907" x2="16.7411" y2="10.7907" gradientUnits="userSpaceOnUse">
<stop stop-color="#DA5263"/>
<stop offset="1" stop-color="#F29951"/>
</linearGradient>
<linearGradient id="paint2_linear_46743_3185" x1="10.7457" y1="6.95842" x2="10.6764" y2="5.29305" gradientUnits="userSpaceOnUse">
<stop stop-color="#F24A67"/>
<stop offset="0.13" stop-color="#F25165"/>
<stop offset="0.32" stop-color="#F36561"/>
<stop offset="0.55" stop-color="#F4855B"/>
<stop offset="0.81" stop-color="#F6B252"/>
<stop offset="1" stop-color="#F8D94B"/>
</linearGradient>
<linearGradient id="paint3_linear_46743_3185" x1="8.28017" y1="9.4018" x2="8.171" y2="2.73596" gradientUnits="userSpaceOnUse">
<stop stop-color="#F24A67"/>
<stop offset="0.13" stop-color="#F25065"/>
<stop offset="0.32" stop-color="#F36362"/>
<stop offset="0.54" stop-color="#F4815C"/>
<stop offset="0.78" stop-color="#F6AB53"/>
<stop offset="1" stop-color="#F8D94B"/>
</linearGradient>
<linearGradient id="paint4_linear_46743_3185" x1="9.78339" y1="12.0967" x2="5.08703" y2="4.81405" gradientUnits="userSpaceOnUse">
<stop offset="0.02" stop-color="#330067"/>
<stop offset="0.04" stop-color="#571066"/>
<stop offset="0.07" stop-color="#802266"/>
<stop offset="0.09" stop-color="#A33265"/>
<stop offset="0.12" stop-color="#C03E65"/>
<stop offset="0.15" stop-color="#D64865"/>
<stop offset="0.18" stop-color="#E54F65"/>
<stop offset="0.22" stop-color="#EF5365"/>
<stop offset="0.27" stop-color="#F25565"/>
<stop offset="0.35" stop-color="#F36A5E"/>
<stop offset="0.52" stop-color="#F7A04E"/>
<stop offset="0.56" stop-color="#F8AD4B"/>
<stop offset="0.66" stop-color="#F48058"/>
<stop offset="0.74" stop-color="#F26061"/>
<stop offset="0.79" stop-color="#F25565"/>
<stop offset="0.81" stop-color="#E65065"/>
<stop offset="0.85" stop-color="#C94265"/>
<stop offset="0.91" stop-color="#992D65"/>
<stop offset="0.97" stop-color="#571066"/>
<stop offset="1" stop-color="#330067"/>
</linearGradient>
<clipPath id="clip0_46743_3185">
<rect width="6.71429" height="10" fill="white" transform="translate(4.83203 2.66602)"/>
</clipPath>
</defs>
</svg>
