<svg width="21" height="20" viewBox="0 0 21 20" fill="#0B0C0D" xmlns="http://www.w3.org/2000/svg">
<path d="M4.16667 16.6673C3.70833 16.6673 3.31611 16.5043 2.99 16.1782C2.66389 15.852 2.50056 15.4595 2.5 15.0007V5.00065C2.5 4.54232 2.66333 4.1501 2.99 3.82398C3.31667 3.49787 3.70889 3.33454 4.16667 3.33398H17.5C17.9583 3.33398 18.3508 3.49732 18.6775 3.82398C19.0042 4.15065 19.1672 4.54287 19.1667 5.00065V15.0007C19.1667 15.459 19.0036 15.8515 18.6775 16.1782C18.3514 16.5048 17.9589 16.6679 17.5 16.6673H4.16667ZM10.8333 10.834L4.16667 6.66732V15.0007H17.5V6.66732L10.8333 10.834ZM10.8333 9.16732L17.5 5.00065H4.16667L10.8333 9.16732ZM4.16667 6.66732V5.00065V15.0007V6.66732Z" />
</svg>
