<svg width="17" height="19" viewBox="0 0 17 19" fill="none" xmlns="http://www.w3.org/2000/svg">
<path d="M1.05204 1.17186C0.82335 1.44695 0.708137 1.79888 0.729864 2.15595V17.7081C0.705087 18.0691 0.820483 18.4258 1.05204 18.7039L1.11061 18.7625L9.821 10.0345V9.82952L1.11061 1.125L1.05204 1.17186Z" fill="#4DC2EC" />
<path d="M12.7511 12.9475L9.85156 10.0421V9.83119L12.7453 6.92578L12.8097 6.96679L16.2657 8.92325C17.244 9.47973 17.244 10.3877 16.2657 10.95L12.8214 12.9006L12.7453 12.9475H12.7511Z" fill="#FCBC00" />
<path d="M12.7837 12.9015L9.81974 9.9375L1.05078 18.7065C1.46082 19.0696 2.08173 19.0872 2.5152 18.7475L12.7837 12.9132" fill="#E8393C" />
<path d="M12.7837 6.9723L2.5152 1.12047C2.30549 0.953468 2.04348 0.865989 1.7755 0.873492C1.50752 0.880996 1.25082 0.982998 1.05078 1.16147L9.81974 9.93629L12.7837 6.96644V6.9723Z" fill="#53B766" />
<path opacity="0.2" d="M12.7388 12.8418L2.5113 18.6409C2.30851 18.793 2.06186 18.8752 1.80837 18.8752C1.55489 18.8752 1.30824 18.793 1.10545 18.6409L1.04688 18.7053L1.10545 18.7639C1.51549 19.0802 2.0954 19.0802 2.5113 18.7639L12.7857 12.9238L12.7388 12.8418Z" fill="#171A1C" />
<path opacity="0.12" d="M1.04618 18.5993C0.814623 18.3212 0.699228 17.9645 0.724005 17.6035V17.7148C0.700758 18.0739 0.816062 18.4282 1.04618 18.7048L1.10475 18.6579L1.04618 18.5993Z" fill="#171A1C" />
<path opacity="0.12" d="M16.2529 10.8493L12.7383 12.841L12.8027 12.8995L16.2588 10.9665C16.6629 10.7791 16.9324 10.3807 16.9617 9.93555C16.9222 10.1315 16.8383 10.3158 16.7165 10.4742C16.5946 10.6326 16.438 10.761 16.2588 10.8493H16.2529Z" fill="#171A1C" />
<path opacity="0.25" d="M2.5112 1.23148L16.2533 9.0222C16.6165 9.19793 16.8801 9.53768 16.9563 9.936C16.9387 9.72016 16.8644 9.51279 16.741 9.33486C16.6176 9.15692 16.4493 9.01471 16.2533 8.92262L2.5112 1.13189C1.52711 0.563699 0.724609 1.02646 0.724609 2.15113V2.25657C0.724609 1.12604 1.52711 0.674995 2.5112 1.23148Z" fill="white" />
</svg>