<svg width="20" height="21" viewBox="0 0 20 21" fill="none" xmlns="http://www.w3.org/2000/svg">
<path d="M19.0156 18.8203L14.2555 13.8697C15.4794 12.4148 16.15 10.5842 16.15 8.67851C16.15 4.22603 12.5275 0.603516 8.07499 0.603516C3.62251 0.603516 0 4.22603 0 8.67851C0 13.131 3.62251 16.7535 8.07499 16.7535C9.74652 16.7535 11.3394 16.2493 12.7013 15.2923L17.4975 20.2805C17.6979 20.4887 17.9676 20.6035 18.2565 20.6035C18.53 20.6035 18.7895 20.4992 18.9864 20.3097C19.4049 19.907 19.4182 19.2392 19.0156 18.8203ZM8.07499 2.71004C11.3661 2.71004 14.0435 5.38742 14.0435 8.67851C14.0435 11.9696 11.3661 14.647 8.07499 14.647C4.78391 14.647 2.10652 11.9696 2.10652 8.67851C2.10652 5.38742 4.78391 2.71004 8.07499 2.71004Z" fill="white"/>
</svg>
