<svg width="16" height="16" viewBox="0 0 16 16" fill="none" xmlns="http://www.w3.org/2000/svg">
<path d="M8 0C3.58125 0 0 3.58125 0 8C0 12.4187 3.58125 16 8 16C12.4187 16 16 12.4187 16 8C16 3.58125 12.4187 0 8 0ZM11.6687 11.5375C11.525 11.7687 11.2313 11.8313 11 11.6875C9.12501 10.5125 6.75001 10.25 3.97501 10.8875C3.71876 10.95 3.46251 10.7875 3.40001 10.525C3.33751 10.2687 3.50001 10.0125 3.76251 9.95C6.78751 9.25 9.40001 9.5625 11.5187 10.8687C11.75 11.0125 11.8125 11.3062 11.6687 11.5375ZM12.6437 9.36875C12.4625 9.65 12.1 9.725 11.8187 9.54375C9.65001 8.175 6.37501 7.7875 3.83751 8.55C3.52501 8.64375 3.18751 8.46875 3.09376 8.15625C3.00001 7.84375 3.17501 7.50625 3.48751 7.4125C6.41251 6.54375 10.0375 6.975 12.4687 8.54375C12.75 8.725 12.825 9.0875 12.6437 9.36875ZM12.7312 7.10625C10.1625 5.5375 5.90001 5.4 3.43751 6.1375C3.06251 6.25 2.66251 6.0375 2.55001 5.6625C2.43751 5.2875 2.65001 4.8875 3.02501 4.775C5.85001 3.9375 10.55 4.1 13.4687 5.89375C13.8062 6.1 13.9125 6.54375 13.7062 6.88125C13.5 7.21875 13.0562 7.325 12.7312 7.10625Z" fill="#1DB954"/>
</svg>
