<svg width="12" height="12" viewBox="0 0 16 16" fill="none" xmlns="http://www.w3.org/2000/svg">
<path d="M4.22548 9.8963C4.30362 9.24935 4.56895 8.88715 5.06895 8.51585C5.7844 8.01295 6.67805 8.2974 6.67805 8.2974V6.60985C6.89535 6.60425 7.1127 6.61715 7.32755 6.6483V8.82005C7.32755 8.82005 6.43415 8.5356 5.71875 9.03875C5.219 9.4098 4.95312 9.7723 4.87525 10.4192C4.87281 10.7705 4.93874 11.2297 5.24235 11.6268C5.16725 11.5883 5.09075 11.5444 5.0128 11.4952C4.34404 11.0461 4.22222 10.3724 4.22548 9.8963ZM11.0176 3.48949C10.5255 2.95019 10.3393 2.40569 10.2721 2.02319H10.8912C10.8912 2.02319 10.7677 3.02612 11.6674 4.01241L11.6799 4.02567C11.4374 3.87315 11.215 3.69312 11.0176 3.48949ZM14 5.01845V7.1465C14 7.1465 13.21 7.1156 12.6254 6.96685C11.809 6.7588 11.2843 6.43975 11.2843 6.43975C11.2843 6.43975 10.9218 6.21225 10.8925 6.1964V10.5908C10.8925 10.8355 10.8255 11.4466 10.6212 11.9562C10.3545 12.623 9.94295 13.0606 9.86725 13.15C9.86725 13.15 9.3667 13.7416 8.4836 14.14C7.6876 14.4993 6.9887 14.4902 6.7798 14.4993C6.7798 14.4993 5.5717 14.5472 4.48458 13.8407C4.24949 13.6849 4.03006 13.5086 3.8291 13.3138L3.83453 13.3177C4.92192 14.0242 6.12975 13.9764 6.12975 13.9764C6.33895 13.9673 7.0378 13.9764 7.83355 13.617C8.71585 13.2187 9.2172 12.6271 9.2172 12.6271C9.2921 12.5377 9.70555 12.1 9.97115 11.4331C10.1749 10.9237 10.2425 10.3123 10.2425 10.0677V5.67375C10.2718 5.68985 10.634 5.91735 10.634 5.91735C10.634 5.91735 11.159 6.2367 11.9753 6.44445C12.5602 6.5932 13.35 6.62415 13.35 6.62415V4.95657C13.6202 5.01715 13.8506 5.03355 14 5.01845Z" fill="#EE1D52"/>
<path d="M13.3504 4.95657V6.6236C13.3504 6.6236 12.5606 6.59265 11.9757 6.44395C11.1594 6.2359 10.6344 5.91685 10.6344 5.91685C10.6344 5.91685 10.2722 5.68935 10.2429 5.6732V10.0682C10.2429 10.3129 10.1759 10.9242 9.9716 11.4336C9.7049 12.1006 9.29335 12.5382 9.21765 12.6276C9.21765 12.6276 8.71685 13.2192 7.834 13.6176C7.03825 13.9769 6.3394 13.9678 6.1302 13.9769C6.1302 13.9769 4.92236 14.0248 3.83497 13.3183L3.82955 13.3144C3.71474 13.2032 3.60668 13.0858 3.50588 12.9628C3.15888 12.5397 2.94618 12.0394 2.89273 11.8967V11.8949C2.80673 11.6468 2.62604 11.0511 2.65073 10.4741C2.69441 9.4561 3.05253 8.83125 3.14722 8.6747C3.39798 8.24785 3.72414 7.8659 4.11116 7.54595C4.45269 7.2698 4.8398 7.0501 5.2566 6.89585C5.7072 6.71475 6.1897 6.61765 6.67825 6.60985V8.2974C6.67825 8.2974 5.78455 8.014 5.0694 8.51585C4.56939 8.88715 4.30406 9.24935 4.22592 9.8963C4.22267 10.3724 4.34448 11.0461 5.0127 11.4955C5.09065 11.5449 5.16715 11.5887 5.24225 11.627C5.35895 11.7788 5.50105 11.911 5.66275 12.0184C6.3155 12.4316 6.86245 12.4604 7.5619 12.1921C8.02825 12.0127 8.3793 11.6083 8.5421 11.1603C8.6444 10.8805 8.64305 10.5989 8.64305 10.3077V2.02319H10.2708C10.3381 2.40569 10.5243 2.95019 11.0164 3.48949C11.2138 3.69312 11.4362 3.87315 11.6786 4.02567C11.7503 4.09977 12.1166 4.46615 12.5867 4.69108C12.8298 4.80734 13.0861 4.89642 13.3504 4.95657Z" fill="white"/>
<path d="M2.24414 11.3784V11.3797L2.28453 11.4892C2.27989 11.4765 2.26488 11.4377 2.24414 11.3784Z" fill="#69C9D0"/>
<path d="M5.2564 6.8958C4.8396 7.0501 4.45249 7.2698 4.11096 7.5459C3.72382 7.8666 3.39774 8.24935 3.14729 8.677C3.05261 8.83305 2.69449 9.4584 2.65081 10.4764C2.62612 11.0534 2.80681 11.6491 2.89281 11.8972V11.899C2.94707 12.0405 3.15896 12.5407 3.50596 12.9651C3.60675 13.0881 3.71482 13.2055 3.82962 13.3167C3.46179 13.0728 3.13373 12.7781 2.85618 12.4419C2.51217 12.0225 2.30001 11.5274 2.24466 11.3813C2.2446 11.3802 2.2446 11.3792 2.24466 11.3782V11.3763C2.15839 11.1285 1.97716 10.5325 2.00239 9.9548C2.04607 8.9368 2.40419 8.31195 2.49888 8.1554C2.74925 7.72765 3.07534 7.3449 3.46255 7.0243C3.804 6.74805 4.19113 6.52835 4.60799 6.3742C4.86801 6.2708 5.1389 6.19455 5.41595 6.1467C5.83345 6.07685 6.2599 6.07075 6.6794 6.12875V6.6098C6.1904 6.61745 5.7074 6.71455 5.2564 6.8958Z" fill="#69C9D0"/>
<path d="M10.2719 2.02318H8.64404V10.308C8.64404 10.5992 8.64404 10.88 8.54314 11.1606C8.37874 11.6084 8.02899 12.0127 7.56289 12.1921C6.86324 12.4615 6.31629 12.4316 5.66379 12.0184C5.50179 11.9115 5.35934 11.7797 5.24219 11.6284C5.79809 11.9126 6.29564 11.9076 6.91204 11.6705C7.37789 11.4911 7.72814 11.0867 7.89199 10.6387C7.99454 10.3589 7.99319 10.0773 7.99319 9.7863V1.5H10.2409C10.2409 1.5 10.2157 1.70594 10.2719 2.02318ZM13.3501 4.49552V4.95655C13.0862 4.89632 12.8304 4.80724 12.5877 4.69107C12.1176 4.46614 11.7513 4.09976 11.6797 4.02565C11.7628 4.07795 11.849 4.12553 11.9379 4.16815C12.5096 4.4417 13.0725 4.52335 13.3501 4.49552Z" fill="#69C9D0"/>
</svg>
