<svg width="17" height="12" viewBox="0 0 17 12" fill="none" xmlns="http://www.w3.org/2000/svg">
<path d="M15.8966 2.37576C15.7099 1.6856 15.1708 1.14647 14.4806 0.959714C13.239 0.621094 8.24177 0.621094 8.24177 0.621094C8.24177 0.621094 3.24456 0.631355 2.00295 0.969975C1.31279 1.15673 0.773658 1.69586 0.586902 2.38602C0.211342 4.59219 0.0656323 7.95376 0.597163 10.0717C0.78392 10.7618 1.32305 11.301 2.01321 11.4877C3.25482 11.8263 8.25203 11.8263 8.25203 11.8263C8.25203 11.8263 13.2492 11.8263 14.4909 11.4877C15.181 11.301 15.7201 10.7618 15.9069 10.0717C16.303 7.86244 16.4251 4.50291 15.8966 2.37576Z" fill="#FF0000"/>
<path d="M6.65039 8.62476L10.7959 6.22363L6.65039 3.82251V8.62476Z" fill="white"/>
</svg>
