<svg width="21" height="16" viewBox="0 0 21 16" fill="#0B0C0D" xmlns="http://www.w3.org/2000/svg">
<g clip-path="url(#clip0_37843_199764)">
<path d="M8.13226 11.1267V5.21276L13.33 8.16982L8.13226 11.1267ZM19.694 3.35197C19.4654 2.49073 18.7915 1.81254 17.9359 1.58237C16.3851 1.16406 10.1662 1.16406 10.1662 1.16406C10.1662 1.16406 3.94729 1.16406 2.39644 1.58237C1.54085 1.81254 0.866951 2.49073 0.63825 3.35197C0.222656 4.91287 0.222656 8.16971 0.222656 8.16971C0.222656 8.16971 0.222656 11.4264 0.63825 12.9874C0.866951 13.8487 1.54085 14.5269 2.39644 14.7572C3.94729 15.1754 10.1662 15.1754 10.1662 15.1754C10.1662 15.1754 16.3851 15.1754 17.9359 14.7572C18.7915 14.5269 19.4654 13.8487 19.694 12.9874C20.1096 11.4264 20.1096 8.16971 20.1096 8.16971C20.1096 8.16971 20.1096 4.91287 19.694 3.35197Z" />
</g>
<defs>
<clipPath id="clip0_37843_199764">
<rect width="20" height="14.4068" fill="white" transform="translate(0.166016 0.796875)"/>
</clipPath>
</defs>
</svg>
