<svg width="156" height="48" viewBox="0 0 156 48" fill="none" xmlns="http://www.w3.org/2000/svg">
<g clip-path="url(#clip0_35136_51027)">
<path d="M144.17 0H9C8.2 0.01 7.4 0.08 6.6 0.22C5.8 0.35 5.04 0.61 4.32 0.97C3.6 1.34 2.94 1.82 2.38 2.4C1.80166 2.96663 1.32176 3.62565 0.96 4.35C0.594562 5.06792 0.338403 5.8364 0.2 6.63C0.07 7.42 0 8.23 0 9.03V38.98C0 39.79 0.07 40.59 0.2 41.38C0.34 42.18 0.6 42.96 0.96 43.68C1.32 44.4 1.8 45.05 2.38 45.61C2.94362 46.1874 3.5992 46.6673 4.32 47.03C5.04 47.39 5.81 47.65 6.6 47.78C7.4 47.92 8.2 47.98 9 48H146.58C147.38 47.99 148.18 47.92 148.98 47.78C149.779 47.6437 150.554 47.391 151.28 47.03C152.712 46.2778 153.884 45.11 154.64 43.68C154.99 42.95 155.24 42.18 155.38 41.38C155.51 40.59 155.58 39.79 155.59 38.98V10.14V9.04C155.59 8.24 155.51 7.43 155.38 6.64C155.177 5.44758 154.702 4.31813 153.991 3.33979C153.279 2.36145 152.352 1.56069 151.28 1C150.555 0.635554 149.78 0.379494 148.98 0.24C148.18 0.11 147.38 0.04 146.58 0.02H144.18L144.17 0.01V0Z" fill="#EDF0F5" fill-opacity="0.1"/>
<path d="M10.1005 46.9605H9.04055C8.29055 46.9605 7.54055 46.9205 6.79055 46.8105C6.0914 46.6727 5.41712 46.43 4.79055 46.0905C3.53735 45.4804 2.52629 44.4659 1.92055 43.2105C1.60023 42.5813 1.37767 41.9069 1.26055 41.2105C1.14055 40.4805 1.07055 39.7305 1.06055 38.9705V10.1305V9.06055C1.07055 8.31055 1.14055 7.56055 1.26055 6.82055C1.47991 5.42563 2.12623 4.13299 3.11055 3.12055C4.11811 2.14435 5.39752 1.49593 6.78055 1.26055C7.53055 1.14055 8.28055 1.07055 9.04055 1.06055H146.581C147.331 1.07055 148.081 1.14055 148.811 1.26055C150.204 1.46659 151.495 2.1138 152.494 3.10724C153.493 4.10068 154.147 5.38807 154.361 6.78055C154.481 7.53055 154.541 8.28055 154.561 9.04055V38.9705C154.551 39.7205 154.481 40.4605 154.361 41.1905C154.208 42.2266 153.807 43.2105 153.193 44.0584C152.578 44.9063 151.768 45.5932 150.831 46.0605C150.201 46.4205 149.531 46.6705 148.831 46.8105C148.081 46.9405 147.331 47.0105 146.581 47.0105H10.1005V46.9605Z" fill="#EDF0F5" fill-opacity="0.1"/>
<path d="M13.8291 7.47844C13.4387 7.94806 13.242 8.54886 13.2791 9.15844V35.7084C13.2368 36.3248 13.4338 36.9337 13.8291 37.4084L13.9291 37.5084L28.7991 22.6084V22.2584L13.9291 7.39844L13.8291 7.47844Z" fill="url(#paint0_linear_35136_51027)"/>
<path d="M33.7996 27.5788L28.8496 22.6188V22.2588L33.7896 17.2988L33.8996 17.3688L39.7996 20.7088C41.4696 21.6588 41.4696 23.2088 39.7996 24.1688L33.9196 27.4988L33.7896 27.5788H33.7996Z" fill="url(#paint1_linear_35136_51027)"/>
<path d="M33.8601 27.4995L28.8001 22.4395L13.8301 37.4095C14.5301 38.0295 15.5901 38.0595 16.3301 37.4795L33.8601 27.5195" fill="url(#paint2_linear_35136_51027)"/>
<path d="M33.8601 17.3792L16.3301 7.38918C15.9721 7.10409 15.5248 6.95475 15.0673 6.96756C14.6098 6.98037 14.1716 7.1545 13.8301 7.45918L28.8001 22.4392L33.8601 17.3692V17.3792Z" fill="url(#paint3_linear_35136_51027)"/>
<path opacity="0.2" d="M33.7784 27.3984L16.3184 37.2984C15.9722 37.5581 15.5511 37.6984 15.1184 37.6984C14.6856 37.6984 14.2646 37.5581 13.9184 37.2984L13.8184 37.4084L13.9184 37.5084C14.6184 38.0484 15.6084 38.0484 16.3184 37.5084L33.8584 27.5384L33.7784 27.3984Z" fill="#0B0C0D"/>
<path opacity="0.12" d="M13.8193 37.2293C13.424 36.7545 13.227 36.1456 13.2693 35.5293V35.7193C13.2296 36.3323 13.4265 36.9371 13.8193 37.4093L13.9193 37.3293L13.8193 37.2293Z" fill="#0B0C0D"/>
<path opacity="0.12" d="M39.7793 23.9995L33.7793 27.3995L33.8893 27.4995L39.7893 24.1995C40.4793 23.8795 40.9393 23.1995 40.9893 22.4395C40.922 22.774 40.7787 23.0885 40.5707 23.359C40.3627 23.6295 40.0953 23.8486 39.7893 23.9995H39.7793Z" fill="#0B0C0D"/>
<path opacity="0.25" d="M16.3195 7.57936L39.7795 20.8794C40.3995 21.1794 40.8495 21.7594 40.9795 22.4394C40.9495 22.0709 40.8227 21.7169 40.612 21.4131C40.4013 21.1093 40.1141 20.8666 39.7795 20.7094L16.3195 7.40936C14.6395 6.43936 13.2695 7.22936 13.2695 9.14936V9.32936C13.2695 7.39936 14.6395 6.62936 16.3195 7.57936Z" fill="white"/>
<path d="M53.7608 13.0706C53.8008 13.9606 53.4808 14.8206 52.8608 15.4706C52.5194 15.8215 52.1078 16.0964 51.6528 16.2773C51.1979 16.4582 50.71 16.5412 50.2208 16.5206C49.7273 16.526 49.2378 16.4326 48.7809 16.2459C48.3241 16.0593 47.9092 15.7831 47.5607 15.4336C47.2122 15.0842 46.9371 14.6686 46.7517 14.2113C46.5662 13.7539 46.4741 13.2641 46.4808 12.7706C46.474 12.148 46.6232 11.5337 46.9147 10.9835C47.2062 10.4334 47.6308 9.96495 48.1498 9.62097C48.6688 9.27698 49.2656 9.06837 49.8858 9.01416C50.5061 8.95996 51.13 9.06187 51.7008 9.31062C52.1308 9.48062 52.5208 9.76062 52.8208 10.1106L52.1908 10.7406C51.9509 10.4558 51.648 10.2308 51.3061 10.0832C50.9642 9.9357 50.5926 9.86976 50.2208 9.89062C49.8554 9.8837 49.4924 9.95103 49.1537 10.0885C48.8151 10.2261 48.5079 10.4309 48.2508 10.6906C47.6908 11.2306 47.3908 11.9906 47.4208 12.7706C47.4132 13.3299 47.5715 13.8789 47.8757 14.3482C48.1798 14.8176 48.6163 15.1863 49.1299 15.4078C49.6435 15.6293 50.2112 15.6936 50.7613 15.5927C51.3114 15.4917 51.8193 15.23 52.2208 14.8406C52.5908 14.4406 52.8108 13.9206 52.8208 13.3806H50.2208V12.5306H53.7008C53.7408 12.7006 53.7608 12.8906 53.7608 13.0706ZM59.3408 10.0706H56.0008V12.3406H58.9708V13.2006H56.0008V15.4806H59.3308V16.3706H55.1308V9.17062H59.3308L59.3408 10.0706ZM63.1908 16.3806H62.2508V10.0706H60.2508V9.17062H65.1908V10.0706H63.1908V16.3806ZM68.7708 16.3806V9.18062H69.7108V16.3806H68.7708ZM73.8108 16.3806H72.8808V10.0706H70.8808V9.17062H75.8208V10.0706H73.8208L73.8108 16.3806ZM85.2008 15.4406C84.8544 15.7877 84.4428 16.0631 83.9898 16.251C83.5368 16.4389 83.0512 16.5356 82.5608 16.5356C82.0704 16.5356 81.5848 16.4389 81.1318 16.251C80.6788 16.0631 80.2673 15.7877 79.9208 15.4406C79.5698 15.0942 79.2936 14.6793 79.1096 14.2217C78.9255 13.7642 78.8374 13.2736 78.8508 12.7806C78.8508 11.7993 79.2406 10.8582 79.9345 10.1643C80.6284 9.47044 81.5695 9.08062 82.5508 9.08062C83.5321 9.08062 84.4732 9.47044 85.1671 10.1643C85.861 10.8582 86.2508 11.7993 86.2508 12.7806C86.261 13.2715 86.1735 13.7595 85.9932 14.2162C85.8129 14.6728 85.5436 15.0891 85.2008 15.4406ZM80.6008 14.8406C81.1008 15.3806 81.8208 15.6706 82.5608 15.6606C83.3008 15.6806 84.0208 15.3806 84.5408 14.8406C85.0708 14.2906 85.3608 13.5406 85.3308 12.7806C85.3444 12.3994 85.2805 12.0194 85.143 11.6636C85.0055 11.3078 84.7972 10.9836 84.5308 10.7106C84.2783 10.4497 83.975 10.2432 83.6396 10.1038C83.3043 9.96454 82.9439 9.89538 82.5808 9.90062C82.2088 9.90306 81.8412 9.98011 81.4995 10.1272C81.1579 10.2743 80.8492 10.4885 80.5919 10.7571C80.3345 11.0256 80.1337 11.3431 80.0012 11.6907C79.8688 12.0383 79.8074 12.4089 79.8208 12.7806C79.7808 13.5506 80.0708 14.2906 80.6008 14.8406ZM87.5408 16.3806V9.18062H88.6708L92.1808 14.7806V9.18062H93.1008V16.3806H92.1308L88.5308 10.5106V16.3806H87.5408Z" fill="white" stroke="white" stroke-width="0.2"/>
<path d="M78.8805 25.1559C77.8698 25.1578 76.8824 25.4595 76.0432 26.0226C75.204 26.5858 74.5506 27.3851 74.1656 28.3196C73.7807 29.2541 73.6815 30.2817 73.8806 31.2726C74.0797 32.2634 74.5682 33.173 75.2842 33.8862C76.0003 34.5995 76.9118 35.0844 77.9034 35.2796C78.895 35.4748 79.9222 35.3716 80.8552 34.983C81.7882 34.5945 82.585 33.9379 83.1448 33.0965C83.7047 32.2551 84.0024 31.2665 84.0005 30.2559C84.01 29.5818 83.8839 28.9127 83.6297 28.2884C83.3755 27.664 82.9984 27.0971 82.5207 26.6214C82.0431 26.1456 81.4748 25.7707 80.8494 25.519C80.2241 25.2672 79.5545 25.1437 78.8805 25.1559ZM78.8805 33.3559C78.2599 33.4 77.6403 33.2564 77.1025 32.9437C76.5646 32.631 76.1332 32.1637 75.8645 31.6026C75.5958 31.0414 75.5022 30.4124 75.5958 29.7973C75.6894 29.1822 75.9659 28.6095 76.3893 28.1537C76.8128 27.6979 77.3636 27.3801 77.9702 27.2415C78.5767 27.103 79.2109 27.1501 79.7903 27.3769C80.3697 27.6037 80.8674 27.9995 81.2188 28.513C81.5702 29.0264 81.7589 29.6337 81.7605 30.2559C81.7806 30.6499 81.7216 31.0439 81.5867 31.4147C81.4519 31.7855 81.2441 32.1254 80.9756 32.4145C80.707 32.7035 80.3833 32.9358 80.0234 33.0975C79.6635 33.2591 79.2749 33.347 78.8805 33.3559ZM67.7005 25.1559C66.689 25.1539 65.6996 25.4522 64.8577 26.0129C64.0159 26.5736 63.3594 27.3716 62.9714 28.3057C62.5834 29.2399 62.4813 30.2681 62.6782 31.2603C62.875 32.2525 63.3619 33.1639 64.0772 33.8792C64.7924 34.5944 65.7038 35.0813 66.696 35.2782C67.6882 35.475 68.7165 35.373 69.6506 34.985C70.5847 34.597 71.3827 33.9405 71.9434 33.0986C72.5042 32.2567 72.8025 31.2674 72.8005 30.2559C72.8099 29.5835 72.6844 28.9161 72.4315 28.2931C72.1785 27.6701 71.8032 27.1041 71.3277 26.6286C70.8522 26.1532 70.2863 25.7778 69.6632 25.5249C69.0402 25.2719 68.3728 25.1464 67.7005 25.1559ZM67.7005 33.3559C67.0801 33.398 66.4615 33.2526 65.9248 32.9386C65.3882 32.6245 64.9584 32.1564 64.6912 31.5949C64.4241 31.0335 64.3319 30.4047 64.4267 29.7902C64.5216 29.1757 64.799 28.6039 65.223 28.1491C65.647 27.6943 66.1979 27.3775 66.8043 27.2399C67.4106 27.1023 68.0443 27.1501 68.6231 27.3773C69.2019 27.6045 69.699 28.0005 70.0498 28.5138C70.4007 29.0271 70.589 29.6341 70.5905 30.2559C70.6106 30.6507 70.5512 31.0456 70.4158 31.417C70.2804 31.7884 70.0717 32.1288 69.8021 32.418C69.5325 32.7072 69.2075 32.9392 68.8465 33.1003C68.4855 33.2614 68.0957 33.3483 67.7005 33.3559ZM54.4005 26.7259V28.8959H59.5905C59.5056 29.9111 59.0831 30.8687 58.3905 31.6159C57.8741 32.1437 57.2537 32.5585 56.5685 32.8339C55.8834 33.1094 55.1485 33.2394 54.4105 33.2159C53.4703 33.2209 52.5431 32.9958 51.71 32.56C50.8769 32.1243 50.1631 31.4912 49.6309 30.7161C49.0988 29.941 48.7644 29.0475 48.6571 28.1134C48.5498 27.1793 48.6728 26.2332 49.0153 25.3576C49.3578 24.482 49.9094 23.7036 50.622 23.0903C51.3346 22.4769 52.1865 22.0474 53.1034 21.8391C54.0202 21.6308 54.9741 21.6501 55.8818 21.8953C56.7894 22.1405 57.6233 22.6042 58.3105 23.2459L59.8405 21.7259C59.1261 21.0186 58.2781 20.4606 57.3458 20.0846C56.4135 19.7086 55.4156 19.5221 54.4105 19.5359C52.3073 19.5359 50.2903 20.3713 48.8031 21.8585C47.3159 23.3457 46.4805 25.3627 46.4805 27.4659C46.4805 29.569 47.3159 31.5861 48.8031 33.0732C50.2903 34.5604 52.3073 35.3959 54.4105 35.3959C55.438 35.4407 56.4633 35.2649 57.4172 34.8802C58.3711 34.4956 59.2315 33.911 59.9405 33.1659C61.1984 31.7828 61.869 29.9646 61.8105 28.0959C61.8105 27.6459 61.7805 27.1959 61.6905 26.7559L54.4105 26.7259H54.4005ZM108.8 28.4259C108.489 27.5033 107.904 26.6975 107.123 26.1152C106.343 25.5329 105.404 25.2018 104.43 25.1659C103.774 25.1646 103.124 25.2979 102.522 25.5577C101.919 25.8175 101.376 26.1981 100.926 26.6761C100.476 27.1541 100.129 27.7193 99.906 28.3367C99.6832 28.9542 99.5894 29.6107 99.6305 30.2659C99.6143 30.9384 99.7339 31.6074 99.9823 32.2326C100.231 32.8578 100.603 33.4265 101.076 33.9045C101.55 34.3826 102.115 34.7602 102.737 35.0147C103.36 35.2692 104.028 35.3955 104.7 35.3859C106.4 35.3859 107.99 34.5259 108.92 33.1059L107.18 31.9059C106.919 32.3344 106.552 32.6884 106.114 32.9336C105.676 33.1788 105.182 33.307 104.68 33.3059C104.156 33.3301 103.636 33.1951 103.19 32.9184C102.744 32.6417 102.392 32.2364 102.18 31.7559L109.02 28.9359L108.8 28.4259ZM101.84 30.1159C101.816 29.744 101.866 29.371 101.988 29.0188C102.11 28.6666 102.3 28.3422 102.549 28.0647C102.798 27.7871 103.099 27.562 103.436 27.4025C103.773 27.243 104.138 27.1524 104.51 27.1359C105.31 27.0859 106.05 27.5159 106.41 28.2359L101.84 30.1159ZM96.3005 35.0759H98.5305V20.0159H96.2805L96.3005 35.0659V35.0759ZM92.6105 26.3059H92.5405C92.1994 25.9349 91.7829 25.6411 91.3189 25.4445C90.855 25.2479 90.3542 25.1529 89.8505 25.1659C88.4952 25.1659 87.1955 25.7042 86.2372 26.6626C85.2788 27.6209 84.7405 28.9206 84.7405 30.2759C84.7405 31.6311 85.2788 32.9309 86.2372 33.8892C87.1955 34.8475 88.4952 35.3859 89.8505 35.3859C90.3595 35.3961 90.8646 35.2938 91.3295 35.0864C91.7945 34.879 92.208 34.5715 92.5405 34.1859H92.6105V34.9159C92.6105 36.8759 91.5705 37.9159 89.8905 37.9159C89.3308 37.9033 88.7876 37.7245 88.3299 37.4022C87.8722 37.0798 87.5208 36.6286 87.3205 36.1059L85.3605 36.9059C85.7274 37.805 86.3547 38.5739 87.1619 39.1139C87.9691 39.6538 88.9193 39.94 89.8905 39.9359C92.5105 39.9359 94.6905 38.3859 94.6905 34.6059V25.4659H92.5905L92.6105 26.3059ZM90.0405 33.3659C89.2639 33.3033 88.5393 32.9507 88.011 32.3781C87.4826 31.8055 87.1893 31.055 87.1893 30.2759C87.1893 29.4968 87.4826 28.7462 88.011 28.1736C88.5393 27.6011 89.2639 27.2484 90.0405 27.1859C90.4265 27.2033 90.8051 27.2986 91.1534 27.4659C91.5018 27.6332 91.8127 27.8692 92.0677 28.1596C92.3226 28.45 92.5163 28.7889 92.637 29.156C92.7578 29.5231 92.8032 29.9108 92.7705 30.2959C92.7976 30.678 92.7476 31.0617 92.6235 31.4242C92.4995 31.7867 92.3039 32.1205 92.0483 32.4059C91.7927 32.6914 91.4824 32.9225 91.1358 33.0857C90.7892 33.2489 90.4133 33.3408 90.0305 33.3559L90.0405 33.3659ZM119.29 20.0259H113.93V35.0259H116.17V29.3759H119.29C119.928 29.4177 120.568 29.3282 121.169 29.1129C121.771 28.8976 122.322 28.5612 122.788 28.1243C123.255 27.6875 123.626 27.1596 123.881 26.5734C124.135 25.9871 124.266 25.3549 124.266 24.7159C124.266 24.0769 124.135 23.4447 123.881 22.8584C123.626 22.2721 123.255 21.7442 122.788 21.3074C122.322 20.8706 121.771 20.5341 121.169 20.3189C120.568 20.1036 119.928 20.0141 119.29 20.0559V20.0259ZM119.35 27.2259H116.17V22.1459H119.35C120.032 22.1459 120.686 22.4166 121.168 22.8986C121.65 23.3806 121.92 24.0343 121.92 24.7159C121.92 25.3975 121.65 26.0512 121.168 26.5331C120.686 27.0151 120.032 27.2859 119.35 27.2859V27.2259ZM133.19 25.0759C132.37 25.0354 131.556 25.2365 130.848 25.6542C130.141 26.0719 129.571 26.6878 129.21 27.4259L131.2 28.2559C131.6 27.5159 132.4 27.0859 133.24 27.1559C133.525 27.1226 133.814 27.1463 134.089 27.2257C134.365 27.305 134.621 27.4384 134.845 27.618C135.068 27.7976 135.254 28.0199 135.39 28.272C135.527 28.524 135.612 28.8006 135.64 29.0859V29.2359C134.918 28.8588 134.115 28.6632 133.3 28.6659C131.16 28.6659 128.98 29.8659 128.98 32.0459C129.002 32.5089 129.116 32.9629 129.316 33.3812C129.516 33.7994 129.797 34.1734 130.144 34.481C130.491 34.7886 130.896 35.0236 131.335 35.1721C131.774 35.3207 132.238 35.3798 132.7 35.3459C133.85 35.4159 134.95 34.8459 135.56 33.8759H135.64V35.0759H137.8V29.2859C137.75 26.6259 135.76 25.1359 133.2 25.1359V25.0759H133.19ZM132.93 33.2959C132.2 33.2959 131.16 32.9259 131.16 32.0259C131.16 30.8259 132.45 30.4159 133.56 30.4159C134.28 30.3959 134.99 30.5759 135.62 30.9159C135.551 31.5843 135.237 32.2034 134.739 32.6539C134.24 33.1044 133.592 33.3545 132.92 33.3559V33.2959H132.93ZM145.63 25.3959L143.06 32.0259H142.99L140.32 25.5259H137.92L141.92 34.6259L139.64 39.6659H141.97L148.12 25.5159L145.62 25.3959H145.63ZM125.45 34.9959H127.7V20.0259H125.45V34.9959Z" fill="white"/>
</g>
<rect x="0.5" y="0.5" width="155" height="47" rx="11.5" stroke="white" stroke-opacity="0.1"/>
<defs>
<linearGradient id="paint0_linear_35136_51027" x1="960.958" y1="156.142" x2="-314.648" y2="1430.67" gradientUnits="userSpaceOnUse">
<stop stop-color="#4597CF"/>
<stop offset="0.01" stop-color="#4498D0"/>
<stop offset="0.26" stop-color="#16B9EA"/>
<stop offset="0.51" stop-color="#4DC2EC"/>
<stop offset="0.76" stop-color="#69C7E6"/>
<stop offset="1" stop-color="#71C9E4"/>
</linearGradient>
<linearGradient id="paint1_linear_35136_51027" x1="1335.49" y1="531.299" x2="-1568.21" y2="531.299" gradientUnits="userSpaceOnUse">
<stop stop-color="#FFE000"/>
<stop offset="0.41" stop-color="#FCBC00"/>
<stop offset="0.78" stop-color="#F7A300"/>
<stop offset="1" stop-color="#F59A00"/>
</linearGradient>
<linearGradient id="paint2_linear_35136_51027" x1="1740.82" y1="499.405" x2="-437.162" y2="2677.36" gradientUnits="userSpaceOnUse">
<stop stop-color="#E8393C"/>
<stop offset="1" stop-color="#C31363"/>
</linearGradient>
<linearGradient id="paint3_linear_35136_51027" x1="-362.934" y1="-176.536" x2="611.894" y2="796.304" gradientUnits="userSpaceOnUse">
<stop stop-color="#329F71"/>
<stop offset="0.07" stop-color="#2EA671"/>
<stop offset="0.48" stop-color="#53B766"/>
<stop offset="0.8" stop-color="#6BBC65"/>
<stop offset="1" stop-color="#72BE66"/>
</linearGradient>
<clipPath id="clip0_35136_51027">
<rect width="156" height="48" rx="12" fill="white"/>
</clipPath>
</defs>
</svg>
