<svg width="156" height="48" viewBox="0 0 156 48" fill="none" xmlns="http://www.w3.org/2000/svg">
<g clip-path="url(#clip0_35136_51016)">
<path d="M144.17 0H9C8.2 0.01 7.4 0.08 6.6 0.22C5.8 0.35 5.04 0.61 4.32 0.97C3.6 1.34 2.94 1.82 2.38 2.4C1.80166 2.96663 1.32176 3.62565 0.96 4.35C0.594562 5.06792 0.338403 5.8364 0.2 6.63C0.07 7.42 0 8.23 0 9.03V38.98C0 39.79 0.07 40.59 0.2 41.38C0.34 42.18 0.6 42.96 0.96 43.68C1.32 44.4 1.8 45.05 2.38 45.61C2.94362 46.1874 3.5992 46.6673 4.32 47.03C5.04 47.39 5.81 47.65 6.6 47.78C7.4 47.92 8.2 47.98 9 48H146.58C147.38 47.99 148.18 47.92 148.98 47.78C149.779 47.6437 150.554 47.391 151.28 47.03C152.712 46.2778 153.884 45.11 154.64 43.68C154.99 42.95 155.24 42.18 155.38 41.38C155.51 40.59 155.58 39.79 155.59 38.98V10.14V9.04C155.59 8.24 155.51 7.43 155.38 6.64C155.177 5.44758 154.702 4.31813 153.991 3.33979C153.279 2.36145 152.352 1.56069 151.28 1C150.555 0.635554 149.78 0.379494 148.98 0.24C148.18 0.11 147.38 0.04 146.58 0.02H144.18L144.17 0.01V0Z" fill="#EDF0F5" fill-opacity="0.1"/>
<path d="M10.1005 46.9605H9.04055C8.29055 46.9605 7.54055 46.9205 6.79055 46.8105C6.0914 46.6727 5.41712 46.43 4.79055 46.0905C3.53735 45.4804 2.52629 44.4659 1.92055 43.2105C1.60023 42.5813 1.37767 41.9069 1.26055 41.2105C1.14055 40.4805 1.07055 39.7305 1.06055 38.9705V10.1305V9.06055C1.07055 8.31055 1.14055 7.56055 1.26055 6.82055C1.47991 5.42563 2.12623 4.13299 3.11055 3.12055C4.11811 2.14435 5.39752 1.49593 6.78055 1.26055C7.53055 1.14055 8.28055 1.07055 9.04055 1.06055H146.581C147.331 1.07055 148.081 1.14055 148.811 1.26055C150.204 1.46659 151.495 2.1138 152.494 3.10724C153.493 4.10068 154.147 5.38807 154.361 6.78055C154.481 7.53055 154.541 8.28055 154.561 9.04055V38.9705C154.551 39.7205 154.481 40.4605 154.361 41.1905C154.208 42.2266 153.807 43.2105 153.193 44.0584C152.578 44.9063 151.768 45.5932 150.831 46.0605C150.201 46.4205 149.531 46.6705 148.831 46.8105C148.081 46.9405 147.331 47.0105 146.581 47.0105H10.1005V46.9605Z" fill="#EDF0F5" fill-opacity="0.1"/>
<path d="M35.0699 23.4004C35.0799 22.3158 35.3649 21.2514 35.8984 20.307C36.4318 19.3625 37.1962 18.5689 38.1199 18.0004C37.5369 17.1644 36.7669 16.476 35.8712 15.9899C34.9754 15.5038 33.9785 15.2335 32.9599 15.2004C30.7799 14.9804 28.6799 16.5204 27.5599 16.5204C26.4399 16.5204 24.7299 15.2304 22.8899 15.3204C21.6999 15.3599 20.5403 15.7066 19.5239 16.3269C18.5076 16.9473 17.6691 17.82 17.0899 18.8604C14.5899 23.1904 16.4599 29.5604 18.8599 33.0604C20.0599 34.7804 21.4599 36.6604 23.2999 36.6604C25.1299 36.6604 25.7699 35.5304 27.9299 35.5304C30.0899 35.5304 30.7199 36.6704 32.5899 36.6304C34.4599 36.6004 35.7299 34.9004 36.8899 33.1804C37.7508 31.9556 38.4123 30.6021 38.8499 29.1704C37.7176 28.6905 36.7537 27.8847 36.0806 26.8554C35.4075 25.8262 35.0557 24.6201 35.0699 23.3904V23.4004ZM31.5299 12.9204C32.5853 11.6615 33.1026 10.0378 32.9699 8.40039C31.3527 8.56526 29.8569 9.33282 28.7799 10.5504C27.7325 11.7481 27.2037 13.3128 27.3099 14.9004C28.1177 14.9138 28.9179 14.7424 29.6493 14.3992C30.3807 14.0561 31.0239 13.5502 31.5299 12.9204Z" fill="white"/>
<path d="M58.2895 10.4789C58.7602 10.4461 59.2323 10.5188 59.6713 10.6917C60.1104 10.8646 60.5053 11.1333 60.8273 11.4783C61.1492 11.8232 61.3901 12.2357 61.5324 12.6856C61.6746 13.1356 61.7146 13.6116 61.6495 14.0789C61.6495 16.3589 60.4495 17.6789 58.2895 17.6789H55.6895V10.4789H58.2895ZM56.8095 16.6189H58.1495C58.4857 16.6466 58.8239 16.598 59.1387 16.4768C59.4536 16.3555 59.7369 16.1647 59.9677 15.9185C60.1985 15.6724 60.3706 15.3773 60.4714 15.0553C60.5721 14.7333 60.5988 14.3927 60.5495 14.0589C60.5966 13.7251 60.5684 13.3849 60.467 13.0633C60.3656 12.7418 60.1935 12.447 59.9634 12.2006C59.7333 11.9542 59.4509 11.7624 59.1371 11.6392C58.8232 11.5161 58.4857 11.4647 58.1495 11.4889H56.8095V16.6189ZM62.8995 14.9289C62.8681 14.5751 62.9107 14.2185 63.0246 13.8821C63.1385 13.5456 63.3212 13.2365 63.561 12.9744C63.8009 12.7124 64.0926 12.5031 64.4177 12.36C64.7429 12.2168 65.0942 12.1429 65.4495 12.1429C65.8047 12.1429 66.156 12.2168 66.4812 12.36C66.8063 12.5031 67.098 12.7124 67.3379 12.9744C67.5777 13.2365 67.7604 13.5456 67.8743 13.8821C67.9882 14.2185 68.0308 14.5751 67.9995 14.9289C68.0308 15.2828 67.9882 15.6393 67.8743 15.9758C67.7604 16.3122 67.5777 16.6213 67.3379 16.8834C67.098 17.1454 66.8063 17.3547 66.4812 17.4979C66.156 17.641 65.8047 17.715 65.4495 17.715C65.0942 17.715 64.7429 17.641 64.4177 17.4979C64.0926 17.3547 63.8009 17.1454 63.561 16.8834C63.3212 16.6213 63.1385 16.3122 63.0246 15.9758C62.9107 15.6393 62.8681 15.2828 62.8995 14.9289ZM66.8995 14.9289C66.8995 13.7289 66.3895 13.0789 65.4595 13.0789C64.5395 13.0789 64.0095 13.7689 64.0095 14.9289C64.0095 16.0989 64.4895 16.7989 65.4595 16.7989C66.4395 16.7989 66.8895 16.0989 66.8895 14.9289H66.8995ZM74.7695 17.6389H73.6695L72.5494 13.6589H72.4695L71.3495 17.6389H70.2595L68.7695 12.2389H69.8495L70.8295 16.3589H70.8995L72.0095 12.2289H73.0295L74.1495 16.3589H74.2295L75.1894 12.2289H76.2595L74.7695 17.6389ZM77.5095 12.2289H78.5494V13.0989H78.6295C78.7628 12.7899 78.9901 12.5308 79.2791 12.3584C79.5682 12.1861 79.9042 12.1093 80.2395 12.1389C80.5017 12.118 80.7654 12.1566 81.0107 12.2517C81.2561 12.3468 81.4768 12.496 81.6565 12.6882C81.8362 12.8804 81.9702 13.1106 82.0487 13.3618C82.1271 13.613 82.1479 13.8786 82.1095 14.1389V17.6389H81.0395V14.3989C81.0395 13.5289 80.6595 13.0989 79.8395 13.0989C79.6593 13.0821 79.4776 13.1063 79.3081 13.1696C79.1386 13.2329 78.9856 13.3337 78.8606 13.4645C78.7355 13.5954 78.6417 13.7527 78.5861 13.9249C78.5305 14.0971 78.5145 14.2797 78.5395 14.4589V17.6389H77.4795L77.5095 12.2389V12.2289ZM83.7994 10.1289H84.8995V17.6389H83.8295L83.7994 10.1289ZM86.3595 14.9289C86.3281 14.5751 86.3707 14.2185 86.4846 13.8821C86.5985 13.5456 86.7812 13.2365 87.021 12.9744C87.2609 12.7124 87.5526 12.5031 87.8778 12.36C88.2029 12.2168 88.5542 12.1429 88.9095 12.1429C89.2647 12.1429 89.616 12.2168 89.9412 12.36C90.2663 12.5031 90.558 12.7124 90.7979 12.9744C91.0377 13.2365 91.2204 13.5456 91.3343 13.8821C91.4482 14.2185 91.4908 14.5751 91.4595 14.9289C91.4908 15.2828 91.4482 15.6393 91.3343 15.9758C91.2204 16.3122 91.0377 16.6213 90.7979 16.8834C90.558 17.1454 90.2663 17.3547 89.9412 17.4979C89.616 17.641 89.2647 17.715 88.9095 17.715C88.5542 17.715 88.2029 17.641 87.8778 17.4979C87.5526 17.3547 87.2609 17.1454 87.021 16.8834C86.7812 16.6213 86.5985 16.3122 86.4846 15.9758C86.3707 15.6393 86.3281 15.2828 86.3595 14.9289ZM90.3595 14.9289C90.3595 13.7289 89.8294 13.0789 88.9095 13.0789C87.9795 13.0789 87.4695 13.7689 87.4695 14.9289C87.4695 16.0989 87.9795 16.7989 88.9095 16.7989C89.8294 16.7989 90.3595 16.0989 90.3595 14.9289ZM92.5795 16.0989C92.5795 15.1389 93.2995 14.5789 94.5995 14.4989L96.0595 14.3989V13.9389C96.0595 13.3689 95.6795 13.0389 94.9394 13.0389C94.2094 13.0389 93.9395 13.2589 93.8295 13.6389H92.7795C92.8995 12.7089 93.7695 12.1189 94.9895 12.1189C96.2195 12.1189 97.1194 12.7989 97.1194 13.9389V17.6389H96.0795V16.8789H95.9995C95.6595 17.4389 95.0295 17.7589 94.3795 17.7289C94.1524 17.7527 93.9229 17.7286 93.7057 17.658C93.4886 17.5875 93.2887 17.4721 93.119 17.3194C92.9493 17.1666 92.8136 16.98 92.7207 16.7714C92.6277 16.5629 92.5796 16.3372 92.5795 16.1089V16.0989ZM96.0595 15.5989V15.1489L94.7395 15.2289C93.9895 15.2289 93.6395 15.5389 93.6395 16.0089C93.6395 16.4789 94.0794 16.7789 94.6595 16.7789C94.8295 16.7968 95.0014 16.7801 95.1648 16.73C95.3283 16.6798 95.4799 16.5971 95.6107 16.4869C95.7414 16.3767 95.8485 16.2413 95.9256 16.0887C96.0028 15.9361 96.0483 15.7695 96.0595 15.5989ZM98.5195 14.9289C98.5195 13.2289 99.3995 12.1489 100.759 12.1489C101.459 12.1189 102.099 12.4889 102.419 13.0989H102.489V10.1289H103.559V17.6389H102.539V16.7989H102.459C102.109 17.3989 101.459 17.7689 100.759 17.7389C99.3795 17.7289 98.5195 16.6389 98.5195 14.9389V14.9289ZM99.6194 14.9289C99.6194 16.1289 100.159 16.7689 101.059 16.7689C101.959 16.7689 102.519 16.0689 102.519 14.9389C102.519 13.8189 101.949 13.1089 101.059 13.1089C100.179 13.1089 99.6194 13.8089 99.6194 14.9289ZM107.979 14.9289C107.948 14.5751 107.991 14.2185 108.105 13.8821C108.219 13.5456 108.401 13.2365 108.641 12.9744C108.881 12.7124 109.173 12.5031 109.498 12.36C109.823 12.2168 110.174 12.1429 110.529 12.1429C110.885 12.1429 111.236 12.2168 111.561 12.36C111.886 12.5031 112.178 12.7124 112.418 12.9744C112.658 13.2365 112.84 13.5456 112.954 13.8821C113.068 14.2185 113.111 14.5751 113.079 14.9289C113.111 15.2828 113.068 15.6393 112.954 15.9758C112.84 16.3122 112.658 16.6213 112.418 16.8834C112.178 17.1454 111.886 17.3547 111.561 17.4979C111.236 17.641 110.885 17.715 110.529 17.715C110.174 17.715 109.823 17.641 109.498 17.4979C109.173 17.3547 108.881 17.1454 108.641 16.8834C108.401 16.6213 108.219 16.3122 108.105 15.9758C107.991 15.6393 107.948 15.2828 107.979 14.9289ZM111.979 14.9289C111.979 13.7289 111.449 13.0789 110.539 13.0789C109.619 13.0789 109.079 13.7689 109.079 14.9289C109.079 16.0989 109.599 16.7989 110.539 16.7989C111.469 16.7989 111.979 16.0989 111.979 14.9289ZM114.499 12.2289H115.529V13.0989H115.609C115.889 12.4589 116.539 12.0789 117.229 12.1389C117.491 12.1196 117.753 12.1594 117.998 12.2552C118.242 12.351 118.461 12.5004 118.64 12.6924C118.818 12.8844 118.951 13.1141 119.029 13.3645C119.107 13.6148 119.128 13.8795 119.089 14.1389V17.6389H118.039V14.3989C118.039 13.5289 117.649 13.0989 116.839 13.0989C116.66 13.0837 116.48 13.1091 116.311 13.1731C116.143 13.2371 115.991 13.3382 115.868 13.4688C115.744 13.5994 115.651 13.7562 115.596 13.9276C115.541 14.099 115.525 14.2806 115.549 14.4589V17.6389H114.479L114.509 12.2389L114.499 12.2289ZM125.129 10.8889V12.2689H126.329V13.1989H125.129V15.9989C125.129 16.5589 125.359 16.8089 125.889 16.8089H126.289V17.7089H125.719C124.519 17.7089 124.059 17.2889 124.059 16.2489V13.1989H123.199V12.3189H124.059V10.8889H125.129ZM127.749 10.1289H128.819V13.1089H128.899C129.179 12.4689 129.839 12.0689 130.539 12.1389C130.801 12.1249 131.061 12.1686 131.304 12.2669C131.546 12.3651 131.764 12.5155 131.941 12.7074C132.119 12.8993 132.252 13.1279 132.331 13.3771C132.41 13.6262 132.434 13.8897 132.399 14.1489V17.6489H131.339V14.3989C131.339 13.5389 130.939 13.0989 130.139 13.0989C129.955 13.0836 129.769 13.1088 129.595 13.1729C129.421 13.237 129.264 13.3383 129.133 13.4698C129.002 13.6013 128.902 13.7598 128.839 13.9341C128.777 14.1084 128.753 14.2944 128.769 14.4789V17.6389H127.699L127.749 10.1389V10.1289ZM138.619 16.1789C138.475 16.6848 138.152 17.1213 137.711 17.408C137.27 17.6947 136.74 17.8122 136.219 17.7389C135.861 17.7585 135.503 17.6975 135.172 17.5605C134.84 17.4235 134.544 17.214 134.304 16.9473C134.064 16.6806 133.887 16.3635 133.786 16.0195C133.685 15.6754 133.662 15.313 133.719 14.9589C133.674 14.6048 133.704 14.245 133.809 13.9037C133.914 13.5624 134.091 13.2476 134.328 12.9804C134.565 12.7132 134.856 12.4998 135.183 12.3547C135.509 12.2095 135.862 12.136 136.219 12.1389C137.719 12.1389 138.619 13.1589 138.619 14.8589V15.2289H134.819V15.2889C134.806 15.4889 134.836 15.6893 134.906 15.877C134.976 16.0647 135.085 16.2355 135.226 16.3782C135.366 16.5208 135.536 16.632 135.723 16.7045C135.909 16.777 136.109 16.8092 136.309 16.7989C136.829 16.8589 137.339 16.5989 137.609 16.1389L138.619 16.1789ZM134.879 14.3989H137.599C137.614 14.2174 137.589 14.035 137.528 13.8634C137.467 13.6919 137.371 13.5351 137.246 13.4031C137.12 13.2711 136.969 13.1669 136.801 13.0973C136.632 13.0277 136.451 12.9942 136.269 12.9989C136.085 12.9962 135.902 13.0306 135.731 13.1C135.559 13.1694 135.404 13.2724 135.273 13.403C135.143 13.5335 135.04 13.6889 134.971 13.86C134.901 14.0311 134.867 14.2143 134.869 14.3989H134.879Z" fill="white"/>
<path d="M61.5494 32.9998H55.8694L54.5094 37.0298H52.1094L57.4794 22.1298H59.9994L65.3794 37.0298H62.9794L61.5594 32.9998H61.5494ZM56.4594 31.1398H60.9594L58.7894 24.5898H58.7294L56.4594 31.1398ZM76.9894 31.6198C76.9894 34.9998 75.1694 37.1698 72.4494 37.1698C71.7546 37.2005 71.0653 37.0348 70.4604 36.6917C69.8554 36.3485 69.3595 35.8419 69.0294 35.2298V40.6098H66.7494V26.2098H68.9094V28.0298C69.26 27.4258 69.7679 26.9282 70.379 26.5901C70.99 26.2519 71.6814 26.0859 72.3794 26.1098C75.1794 26.0498 76.9794 28.2098 76.9794 31.6298L76.9894 31.6198ZM74.6894 31.6198C74.6894 29.4298 73.4894 28.0198 71.8294 28.0198C70.1594 28.0198 68.9694 29.4998 68.9694 31.6198C68.9694 33.7498 70.1694 35.2898 71.8294 35.2898C73.4794 35.2898 74.6894 33.8098 74.6894 31.6298V31.6198ZM88.9394 31.6198C88.9394 34.9998 87.1394 37.1698 84.4194 37.1698C83.7246 37.2005 83.0353 37.0348 82.4304 36.6917C81.8255 36.3485 81.3295 35.8419 80.9994 35.2298V40.6098H78.7194V26.2098H80.8794V28.0298C81.2283 27.4288 81.7331 26.9332 82.3403 26.5953C82.9475 26.2573 83.6347 26.0896 84.3294 26.1098C87.1294 26.0498 88.9394 28.2098 88.9394 31.6298V31.6198ZM86.6494 31.6198C86.6494 29.4298 85.5194 28.0198 83.7794 28.0198C82.0394 28.0198 80.9394 29.4998 80.9394 31.6198C80.9394 33.7498 82.0794 35.2198 83.7794 35.2198C85.4794 35.2198 86.6494 33.8198 86.6494 31.6198ZM96.8494 32.8198C97.0194 34.2998 98.4494 35.2198 100.449 35.2198C102.449 35.2198 103.679 34.2598 103.679 32.9198C103.679 31.5898 102.869 31.0798 100.929 30.5998L98.9994 30.1198C96.2594 29.4598 94.9994 28.1798 94.9994 26.1098C94.9994 23.5298 97.2394 21.7598 100.419 21.7598C103.599 21.7598 105.729 23.5298 105.809 26.1098H103.509C103.379 24.6198 102.149 23.7098 100.359 23.7098C98.5594 23.7098 97.3294 24.6098 97.3294 25.9398C97.3294 26.9798 98.1094 27.6098 100.029 28.0898L101.679 28.4898C104.739 29.2098 106.009 30.4398 106.009 32.6098C106.009 35.4098 103.779 37.1498 100.249 37.1498C96.9494 37.1498 94.7194 35.4498 94.5694 32.7498L96.8494 32.8198ZM110.819 23.5898V26.1498H112.889V27.9198H110.819V33.9198C110.819 34.8398 111.229 35.2798 112.139 35.2798C112.386 35.295 112.633 35.295 112.879 35.2798V37.0298C112.479 37.0998 112.079 37.1398 111.679 37.1298C109.469 37.1298 108.619 36.3098 108.619 34.1998V27.9198H106.989V26.1498H108.579V23.5898H110.819ZM114.079 31.6198C114.079 28.2098 116.089 26.0598 119.239 26.0598C122.379 26.0598 124.389 28.2098 124.389 31.6298C124.389 35.0498 122.389 37.1998 119.239 37.1998C116.079 37.1998 114.079 35.0198 114.079 31.6298V31.6198ZM122.119 31.6198C122.119 29.2898 121.039 27.8898 119.239 27.8898C117.439 27.8898 116.409 29.2298 116.409 31.6298C116.409 34.0298 117.469 35.3598 119.289 35.3598C121.089 35.3598 122.119 33.9398 122.119 31.6298V31.6198ZM126.239 26.1498H128.409V28.0298C128.709 26.8298 129.799 26.0298 131.019 26.0698C131.279 26.0698 131.539 26.0898 131.789 26.1498V28.2498C131.479 28.1098 131.149 28.0398 130.809 28.0298C130.475 28.0061 130.14 28.0572 129.827 28.1792C129.515 28.3012 129.234 28.4911 129.004 28.7352C128.774 28.9793 128.602 29.2715 128.499 29.5905C128.396 29.9095 128.366 30.2474 128.409 30.5798V37.0298H126.189L126.239 26.1498ZM142.069 33.8398C141.769 35.7998 139.849 37.1598 137.399 37.1598C134.229 37.1598 132.269 35.0398 132.269 31.6398C132.269 28.2398 134.239 26.0198 137.299 26.0198C140.359 26.0198 142.199 28.0898 142.199 31.3898V32.1398H134.519V32.2898C134.485 32.6896 134.536 33.0923 134.669 33.4709C134.802 33.8495 135.015 34.1955 135.292 34.4858C135.569 34.7761 135.905 35.0042 136.277 35.1549C136.649 35.3056 137.048 35.3754 137.449 35.3598C138.529 35.4598 139.549 34.8398 139.949 33.8398H142.069ZM134.529 30.5798H139.969C139.99 30.2199 139.936 29.8597 139.811 29.5219C139.685 29.1841 139.49 28.8762 139.239 28.6176C138.988 28.359 138.686 28.1554 138.352 28.0198C138.018 27.8842 137.66 27.8195 137.299 27.8298C136.937 27.8284 136.578 27.8985 136.242 28.036C135.907 28.1735 135.602 28.3757 135.345 28.6311C135.088 28.8864 134.883 29.19 134.743 29.5243C134.603 29.8587 134.531 30.2173 134.529 30.5798Z" fill="white"/>
</g>
<rect x="0.5" y="0.5" width="155" height="47" rx="11.5" stroke="white" stroke-opacity="0.1"/>
<defs>
<clipPath id="clip0_35136_51016">
<rect width="156" height="48" rx="12" fill="white"/>
</clipPath>
</defs>
</svg>
