<svg width="176" height="54" viewBox="0 0 176 54" fill="none" xmlns="http://www.w3.org/2000/svg">
<rect x="1.8" y="1.8" width="172.372" height="50.4" rx="14" fill="url(#paint0_linear_37219_14330)"/>
<rect x="1.8" y="1.8" width="172.372" height="50.4" rx="14" stroke="url(#paint1_linear_37219_14330)" stroke-width="2.4"/>
<path d="M34.4648 23.6474C35.5137 22.606 35.5137 20.9175 34.4648 19.8761C33.416 18.8346 31.7155 18.8346 30.6667 19.8761C29.6178 20.9175 29.6178 22.606 30.6667 23.6474C31.7155 24.6888 33.416 24.6888 34.4648 23.6474Z" fill="url(#paint2_linear_37219_14330)"/>
<path d="M29.8799 35.0005C29.8799 36.4731 28.6773 37.6672 27.1942 37.6672C25.7111 37.6672 24.5085 36.4731 24.5085 35.0005L24.5072 30.8285L24.5085 30.8273V28.0634C24.5085 28.0552 24.5135 27.7523 24.506 27.4594V27.4556C24.5041 27.3779 24.5009 27.3014 24.4965 27.2311V27.2223C24.4958 27.2167 24.4952 27.2104 24.4946 27.2041C24.494 27.1941 24.4927 27.1847 24.4921 27.1765C24.4876 27.1176 24.4838 27.058 24.4775 26.9997C24.4624 26.8586 24.4422 26.7187 24.4163 26.5814C24.2356 25.6099 23.789 24.7306 23.1543 24.0206C23.0115 23.8607 22.8599 23.7096 22.6988 23.5684C22.6628 23.5371 22.6262 23.507 22.5896 23.4763L19.6259 20.5336C19.3177 20.0996 19.1371 19.5703 19.1371 18.9995C19.1371 17.5263 20.3397 16.3328 21.8228 16.3328H35.2513V11H21.8228C18.3147 11 15.3302 13.2264 14.2242 16.3334C14.1926 16.4225 14.1623 16.5122 14.1345 16.6025C13.8945 17.3595 13.7656 18.1648 13.7656 19.0002C13.7656 20.4232 14.1396 21.7591 14.7965 22.9168C14.9626 23.2103 15.147 23.4926 15.3479 23.7616C15.4249 23.8651 15.5039 23.9661 15.586 24.0652C15.9258 24.4778 16.3067 24.856 16.7223 25.1934L17.9546 26.417C17.9546 26.417 17.9572 26.4202 17.9584 26.4214C18.5313 27.1069 18.9343 27.9367 19.1036 28.8473C19.1162 28.9132 19.1269 28.9797 19.1371 29.0468V30.6021C19.1364 30.6059 19.1364 30.609 19.1358 30.6128C19.1358 30.6128 19.1362 30.6124 19.1371 30.6115V35.0005C19.1371 35.9356 19.2988 36.8331 19.5956 37.6672C20.7016 40.7736 23.6861 43 27.1942 43C30.7023 43 33.6868 40.7736 34.7928 37.6672C35.0896 36.8331 35.2513 35.9356 35.2513 35.0005V27.0003H29.8799V35.0005Z" fill="url(#paint3_linear_37219_14330)"/>
<path d="M29.8801 34.5459L29.8799 35.0005C29.8799 36.4731 28.6773 37.6672 27.1942 37.6672C25.7111 37.6672 24.5085 36.4731 24.5085 35.0005L24.5072 30.8285L24.5085 30.8273V28.0634C24.5085 28.0552 24.5135 27.7523 24.506 27.4594V27.4556C24.5041 27.3779 24.5009 27.3014 24.4965 27.2311C24.4965 27.228 24.4965 27.2255 24.4965 27.2223C24.4965 27.2167 24.496 27.2105 24.4954 27.2042C24.4948 27.1942 24.4935 27.1848 24.4929 27.1766C24.4885 27.1177 24.4847 27.0581 24.4783 26.9998C24.4632 26.8587 24.443 26.7188 24.4171 26.5815C24.2364 25.61 23.7899 24.7307 23.1551 24.0207C23.0123 23.8608 22.8607 23.7097 22.6997 23.5685C22.6637 23.5372 22.627 23.5071 22.5904 23.4764L19.6268 20.5337C19.3185 20.0997 19.1379 19.5704 19.1379 18.9996C19.1379 17.6851 20.0961 16.5938 21.3562 16.3743V16.373C20.0828 16.5543 18.0003 17.2818 16.2987 19.9573C15.4093 21.3559 15.1504 22.5638 15.1984 23.5535C15.2476 23.6237 15.2975 23.6927 15.3487 23.7617C15.4257 23.8652 15.5047 23.9662 15.5868 24.0653C15.9266 24.4779 16.3075 24.8561 16.7231 25.1935L17.9554 26.4171C17.9554 26.4171 17.958 26.4203 17.9592 26.4215C18.5321 27.107 18.9351 27.9368 19.1044 28.8474C19.117 28.9133 19.1278 28.9798 19.1379 29.0469V30.6022C19.1372 30.606 19.1372 30.6091 19.1366 30.6129C19.1366 30.6129 19.137 30.6125 19.1379 30.6116V35.0006C19.1379 35.9357 19.2996 36.8332 19.5964 37.6673C20.403 39.9326 22.2089 41.7282 24.4878 42.536C24.4903 42.5354 24.4922 42.5341 24.4948 42.5335C30.417 40.181 29.8807 34.5465 29.8807 34.5465L29.8801 34.5459Z" fill="url(#paint4_linear_37219_14330)"/>
<path d="M24.331 30.7552L24.3323 30.754V28.0634C24.3323 28.062 24.3324 28.0575 24.3324 28.0501C24.3332 27.9878 24.3365 27.7231 24.3298 27.464L24.3297 27.4594H24.3298V27.4578C24.3279 27.3826 24.3249 27.3092 24.3206 27.2422L24.3199 27.2311H24.3203L24.3193 27.2218L24.3186 27.2152L24.3187 27.2152L24.3181 27.2076C24.3177 27.2045 24.3169 27.197 24.3164 27.1902L24.3164 27.1897C24.3154 27.1766 24.3145 27.1639 24.3135 27.1514C24.3102 27.1048 24.307 27.0616 24.3024 27.0187L24.3024 27.0185C24.2876 26.8816 24.2681 26.7464 24.2431 26.614L24.243 26.6136C24.0685 25.6748 23.6369 24.8248 23.0229 24.1381L23.0228 24.138C22.8847 23.9832 22.7382 23.8372 22.5829 23.7011C22.5579 23.6793 22.5331 23.6586 22.5065 23.6365C22.4967 23.6283 22.4867 23.6199 22.4763 23.6112L22.4707 23.6065L22.4654 23.6013L19.5018 20.6586L19.4911 20.6479L19.4823 20.6356C19.1536 20.1728 18.9609 19.608 18.9609 18.9995C18.9609 18.2283 19.2697 17.5294 19.7709 17.0176C18.7158 17.4915 17.5082 18.3838 16.4473 20.0519C15.5907 21.399 15.3373 22.554 15.3722 23.4942C15.4109 23.5487 15.4501 23.6027 15.4902 23.6568C15.5656 23.7579 15.6426 23.8564 15.7225 23.9528L15.7228 23.9533C16.0552 24.3569 16.4277 24.7267 16.8342 25.0568L16.841 25.0623L16.8473 25.0685L18.0796 26.2921L18.0865 26.299L18.0891 26.3022L18.0892 26.3023L18.0944 26.3086C18.686 27.0164 19.1025 27.8736 19.2775 28.8147M24.331 30.7552L19.2766 28.8141C19.2766 28.8142 19.2766 28.8143 19.2767 28.8144L19.2774 28.8142C19.2775 28.8144 19.2775 28.8146 19.2775 28.8147M24.331 30.7552L24.331 30.8286M24.331 30.7552L24.331 30.8286M19.2775 28.8147C19.2775 28.8149 19.2776 28.8151 19.2776 28.8152L19.2768 28.8154C19.29 28.8841 19.3011 28.9527 19.3113 29.0205L19.3113 29.0207L19.3132 29.0336V29.0468V29.0469V30.1879V30.1888L19.3141 30.188V29.0469V29.0337L19.3121 29.0206C19.3018 28.9526 19.2907 28.8837 19.2775 28.8147ZM19.7624 37.6082C19.7624 37.6082 19.7624 37.6082 19.7624 37.6082L19.7617 37.6084C19.7617 37.6083 19.7616 37.6082 19.7616 37.6081C19.4714 36.7927 19.3133 35.9152 19.3132 35.0006C19.3132 35.0005 19.3132 35.0005 19.3132 35.0005V30.6218L19.3141 30.6169V35.0006C19.3141 35.9152 19.4722 36.7927 19.7624 37.6082ZM19.7624 37.6082L19.7617 37.6085C20.5431 39.8027 22.2833 41.5483 24.4829 42.3485C24.4835 42.3482 24.4842 42.348 24.4848 42.3477M19.7624 37.6082C20.5438 39.8026 22.2846 41.5471 24.4848 42.3477M24.4848 42.3477C24.5054 42.3552 24.526 42.3626 24.5467 42.3699L24.5462 42.3712C24.6932 42.4232 24.8421 42.471 24.993 42.5145M24.4848 42.3477C27.3537 41.1901 28.6546 39.2502 29.2426 37.5987C29.358 37.2747 29.4459 36.9615 29.5128 36.6672C29.8545 36.1991 30.0561 35.6233 30.0561 35.0005C30.0561 35.0005 30.0561 35.0005 30.0561 35.0005L30.0563 34.5459H30.0561V34.53M24.993 42.5145C24.9108 42.5513 24.8273 42.5874 24.7424 42.6228C25.5155 42.8678 26.3393 43 27.1942 43C30.7023 43 33.6868 40.7736 34.7928 37.6672M24.993 42.5145C27.7085 41.2997 28.9844 39.3745 29.5746 37.7169C29.8841 36.8475 30.0045 36.0537 30.0477 35.4768C30.0693 35.1882 30.0715 34.9533 30.0684 34.7898C30.0668 34.708 30.0638 34.644 30.0612 34.5999C30.0599 34.5779 30.0587 34.5609 30.0577 34.5491L30.0566 34.5354L30.0563 34.5316L30.0562 34.5304L30.0561 34.5301C30.0561 34.5301 30.0561 34.53 30.0561 34.53M24.993 42.5145C25.6915 42.7159 26.4302 42.8238 27.1942 42.8238C30.6261 42.8238 33.5452 40.6459 34.6268 37.6081M34.7928 37.6672C35.0896 36.8331 35.2513 35.9356 35.2513 35.0005V27.1765H35.0752M34.7928 37.6672L34.6268 37.6081M34.7928 37.6672L34.6268 37.6081C34.6268 37.6081 34.6268 37.6081 34.6268 37.6081M35.0752 27.1765V27.0003H30.0561V27.1765M35.0752 27.1765H30.0561M35.0752 27.1765L30.0561 34.53M30.0561 27.1765H29.8799V34.2973L30.0043 34.4209L30.0049 34.4215L30.0501 34.4664L30.0561 34.5296M30.0561 27.1765V34.5296M30.0561 34.5296V34.5298M30.0561 34.5296L30.0561 34.5298L30.0561 34.5298M30.0561 34.5298L29.8873 34.5459C30.0455 34.5308 30.0555 34.53 30.0561 34.53M30.0561 34.5298V34.53M30.0561 34.53L34.6268 37.6081M24.331 30.8286L24.3323 35.0005L24.331 30.8286ZM18.0923 26.3069L18.0927 26.3066L18.0927 26.3066L18.0923 26.3069L18.0884 26.3022L18.0882 26.302L18.0857 26.2989L18.0833 26.2965L18.0792 26.2925L18.0788 26.292L16.8469 25.0689L16.8465 25.0684L16.8402 25.0622L16.8339 25.0571L16.8334 25.0567C16.427 24.7268 16.0546 24.357 15.7224 23.9536C15.7223 23.9535 15.7222 23.9533 15.722 23.9532C15.722 23.9532 15.722 23.9532 15.722 23.9532L15.7217 23.9528C15.6419 23.8565 15.565 23.7581 15.4897 23.6571L18.0923 26.3069ZM16.15 19.8628C15.4113 21.0244 15.0946 22.065 15.0296 22.9678C15.0026 22.9222 14.9759 22.8763 14.9498 22.83L14.9497 22.8299C14.3074 21.6979 13.9418 20.3919 13.9418 19.0002C13.9418 18.183 14.0678 17.3957 14.3024 16.6557L14.3025 16.6557L14.3029 16.6543C14.3297 16.5671 14.3592 16.4799 14.3902 16.3924C15.4718 13.3541 18.3909 11.1762 21.8228 11.1762H35.0752V16.1566H21.8228C21.7247 16.1566 21.6279 16.1615 21.5324 16.1711V16.17L21.5032 16.1741C21.4428 16.1808 21.383 16.1894 21.3238 16.1997C20.0066 16.3889 17.8799 17.1428 16.15 19.8628L16.15 19.8628ZM18.0826 26.2964C18.0827 26.2966 18.0829 26.2967 18.083 26.2969L18.0826 26.2964ZM34.3407 20.0011C35.3201 20.9736 35.3201 22.5498 34.3407 23.5223C33.3606 24.4955 31.7709 24.4956 30.7908 23.5223C29.8114 22.5498 29.8114 20.9736 30.7908 20.0011C31.7709 19.0279 33.3606 19.0279 34.3407 20.0011Z" stroke="url(#paint5_linear_37219_14330)" stroke-width="0.352375"/>
<path d="M153.858 20.064C159.114 20.064 162.208 23.4238 162.208 29.0789V40.1563H156.652V29.9106C156.652 26.6838 154.956 24.7211 152.128 24.7211C148.935 24.7211 146.739 27.2826 146.739 31.0749V40.1563H141.15V20.3634H146.673V23.2575C148.07 21.2615 150.698 20.064 153.858 20.064Z" fill="white"/>
<path d="M127.954 20.064C134.674 20.064 139.431 24.0226 139.431 29.5446C139.431 30.2432 139.364 31.0083 139.231 31.4408H122.199C122.399 34.0355 124.894 35.8984 128.287 35.8984C130.815 35.8984 132.744 34.8339 133.31 33.1706H139.164C138.433 37.5616 134.141 40.4557 128.12 40.4557C121.001 40.4557 116.344 36.4306 116.344 30.343C116.344 24.2554 121.035 20.064 127.954 20.064ZM128.12 24.6213C125.393 24.6213 123.164 25.8854 122.565 27.8148H133.476C132.844 25.8189 130.815 24.6213 128.12 24.6213Z" fill="white"/>
<path d="M109.544 34.2351C109.544 33.3036 108.613 32.7381 106.65 32.5718L103.024 32.2059C98.0342 31.7069 95.2399 29.5114 95.2399 26.085C95.2399 22.326 98.6995 20.064 104.554 20.064C110.642 20.064 114.301 22.4591 114.933 26.8169H109.178C108.679 25.2867 107.249 24.5881 104.587 24.5881C102.292 24.5881 101.061 25.1203 101.061 26.1183C101.061 26.9167 101.926 27.3824 103.822 27.582L107.415 27.9479C112.604 28.4801 115.332 30.6424 115.332 34.1685C115.332 38.1604 111.839 40.4557 105.685 40.4557C99.2317 40.4557 95.4062 37.9276 94.7076 33.3702H100.463C100.995 35.0667 102.691 35.9316 105.719 35.9316C108.213 35.9316 109.544 35.3328 109.544 34.2351Z" fill="white"/>
<path d="M87.9409 34.2351C87.9409 33.3036 87.0095 32.7381 85.0468 32.5718L81.4209 32.2059C76.4311 31.7069 73.6368 29.5114 73.6368 26.085C73.6368 22.326 77.0964 20.064 82.9511 20.064C89.0387 20.064 92.6979 22.4591 93.33 26.8169H87.575C87.076 25.2867 85.6456 24.5881 82.9844 24.5881C80.6891 24.5881 79.4582 25.1203 79.4582 26.1183C79.4582 26.9167 80.3231 27.3824 82.2193 27.582L85.8119 27.9479C91.0014 28.4801 93.7291 30.6424 93.7291 34.1685C93.7291 38.1604 90.2363 40.4557 84.0821 40.4557C77.6286 40.4557 73.8031 37.9276 73.1045 33.3702H78.8595C79.3917 35.0667 81.0882 35.9316 84.1154 35.9316C86.6103 35.9316 87.9409 35.3328 87.9409 34.2351Z" fill="white"/>
<path d="M65.7183 18.5661V13.543H71.4067V18.5661H65.7183ZM65.7516 40.1554V20.3624H71.3402V40.1554H65.7516Z" fill="white"/>
<path d="M50.7063 13.543V35.1656H63.6798V40.1554H44.8516V13.543H50.7063Z" fill="white"/>
<defs>
<linearGradient id="paint0_linear_37219_14330" x1="88.2127" y1="-14.1133" x2="88.3013" y2="62.5921" gradientUnits="userSpaceOnUse">
<stop stop-color="#033A46"/>
<stop offset="0.34375" stop-color="#033A46"/>
<stop offset="0.744792" stop-color="#222233"/>
</linearGradient>
<linearGradient id="paint1_linear_37219_14330" x1="3" y1="35.3721" x2="172.006" y2="35.3721" gradientUnits="userSpaceOnUse">
<stop stop-color="#DA5263"/>
<stop offset="1" stop-color="#F29951"/>
</linearGradient>
<linearGradient id="paint2_linear_37219_14330" x1="16.3853" y1="40.156" x2="37.0906" y2="25.038" gradientUnits="userSpaceOnUse">
<stop stop-color="#F24A67"/>
<stop offset="0.13" stop-color="#F25165"/>
<stop offset="0.32" stop-color="#F36561"/>
<stop offset="0.55" stop-color="#F4855B"/>
<stop offset="0.81" stop-color="#F6B252"/>
<stop offset="1" stop-color="#F8D94B"/>
</linearGradient>
<linearGradient id="paint3_linear_37219_14330" x1="24.7997" y1="32.5577" x2="24.4504" y2="11.227" gradientUnits="userSpaceOnUse">
<stop stop-color="#F24A67"/>
<stop offset="0.13" stop-color="#F25065"/>
<stop offset="0.32" stop-color="#F36362"/>
<stop offset="0.54" stop-color="#F4815C"/>
<stop offset="0.78" stop-color="#F6AB53"/>
<stop offset="1" stop-color="#F8D94B"/>
</linearGradient>
<linearGradient id="paint4_linear_37219_14330" x1="29.6061" y1="41.183" x2="14.5777" y2="17.8784" gradientUnits="userSpaceOnUse">
<stop offset="0.02" stop-color="#330067"/>
<stop offset="0.04" stop-color="#571066"/>
<stop offset="0.07" stop-color="#802266"/>
<stop offset="0.09" stop-color="#A33265"/>
<stop offset="0.12" stop-color="#C03E65"/>
<stop offset="0.15" stop-color="#D64865"/>
<stop offset="0.18" stop-color="#E54F65"/>
<stop offset="0.22" stop-color="#EF5365"/>
<stop offset="0.27" stop-color="#F25565"/>
<stop offset="0.35" stop-color="#F36A5E"/>
<stop offset="0.52" stop-color="#F7A04E"/>
<stop offset="0.56" stop-color="#F8AD4B"/>
<stop offset="0.66" stop-color="#F48058"/>
<stop offset="0.74" stop-color="#F26061"/>
<stop offset="0.79" stop-color="#F25565"/>
<stop offset="0.81" stop-color="#E65065"/>
<stop offset="0.85" stop-color="#C94265"/>
<stop offset="0.91" stop-color="#992D65"/>
<stop offset="0.97" stop-color="#571066"/>
<stop offset="1" stop-color="#330067"/>
</linearGradient>
<linearGradient id="paint5_linear_37219_14330" x1="24.7997" y1="32.5577" x2="24.4504" y2="11.227" gradientUnits="userSpaceOnUse">
<stop stop-color="#F24A67"/>
<stop offset="0.13" stop-color="#F25065"/>
<stop offset="0.32" stop-color="#F36362"/>
<stop offset="0.54" stop-color="#F4815C"/>
<stop offset="0.78" stop-color="#F6AB53"/>
<stop offset="1" stop-color="#F8D94B"/>
</linearGradient>
</defs>
</svg>
